<svg xmlns="http://www.w3.org/2000/svg" xmlns:xlink="http://www.w3.org/1999/xlink" width="1000" height="1000" viewBox="0 0 1000 1000">
  <defs>
    <clipPath id="clip-Web_1920_1">
      <rect width="1000" height="1000"/>
    </clipPath>
  </defs>
  <g id="Web_1920_1" data-name="Web 1920 – 1" clip-path="url(#clip-Web_1920_1)">
    <path id="Rectangle_1" data-name="Rectangle 1" d="M0,0H150a0,0,0,0,1,0,0V150a0,0,0,0,1,0,0H50A50,50,0,0,1,0,100V0A0,0,0,0,1,0,0Z" transform="translate(296.066 649.264) rotate(-45)" fill="#7a85fc"/>
    <rect id="Rectangle_2" data-name="Rectangle 2" width="150" height="150" transform="translate(402.132 543.198) rotate(-45)" fill="#ffc400"/>
    <rect id="Rectangle_3" data-name="Rectangle 3" width="150" height="150" transform="translate(508.198 437.132) rotate(-45)" fill="#ff9e22"/>
    <path id="Rectangle_4" data-name="Rectangle 4" d="M50,0h50a50,50,0,0,1,50,50V150a0,0,0,0,1,0,0H0a0,0,0,0,1,0,0V50A50,50,0,0,1,50,0Z" transform="translate(190 543.198) rotate(-45)" fill="#3ccfcf"/>
    <path id="Rectangle_5" data-name="Rectangle 5" d="M0,0H100a50,50,0,0,1,50,50v50a50,50,0,0,1-50,50H0a0,0,0,0,1,0,0V0A0,0,0,0,1,0,0Z" transform="translate(614.264 331.066) rotate(-45)" fill="#ee6e73"/>
  </g>
</svg>
